<?xml version="1.0" encoding="UTF-8"?>
<svg xmlns="http://www.w3.org/2000/svg" xmlns:xlink="http://www.w3.org/1999/xlink" width="100px" height="100px" viewBox="0 0 100 100" version="1.1">
<defs>
<g>
<symbol overflow="visible" id="glyph0-0">
<path style="stroke:none;" d="M 0.46875 1.671875 L 0.46875 -6.640625 L 5.1875 -6.640625 L 5.1875 1.671875 Z M 1 1.140625 L 4.65625 1.140625 L 4.65625 -6.109375 L 1 -6.109375 Z M 1 1.140625 "/>
</symbol>
<symbol overflow="visible" id="glyph0-1">
<path style="stroke:none;" d="M 0.859375 -6.875 L 5.640625 -6.875 L 5.640625 -5.53125 L 2.640625 -5.53125 L 2.640625 -4.25 L 5.46875 -4.25 L 5.46875 -2.90625 L 2.640625 -2.90625 L 2.640625 -1.34375 L 5.75 -1.34375 L 5.75 0 L 0.859375 0 Z M 0.859375 -6.875 "/>
</symbol>
<symbol overflow="visible" id="glyph0-2">
<path style="stroke:none;" d="M 2.640625 -5.53125 L 2.640625 -1.34375 L 3.265625 -1.34375 C 3.992188 -1.34375 4.546875 -1.519531 4.921875 -1.875 C 5.304688 -2.238281 5.5 -2.757812 5.5 -3.4375 C 5.5 -4.125 5.304688 -4.644531 4.921875 -5 C 4.546875 -5.351562 3.992188 -5.53125 3.265625 -5.53125 Z M 0.859375 -6.875 L 2.734375 -6.875 C 3.773438 -6.875 4.550781 -6.796875 5.0625 -6.640625 C 5.570312 -6.492188 6.007812 -6.242188 6.375 -5.890625 C 6.695312 -5.578125 6.9375 -5.21875 7.09375 -4.8125 C 7.25 -4.40625 7.328125 -3.945312 7.328125 -3.4375 C 7.328125 -2.914062 7.25 -2.453125 7.09375 -2.046875 C 6.9375 -1.640625 6.695312 -1.285156 6.375 -0.984375 C 6.007812 -0.628906 5.566406 -0.375 5.046875 -0.21875 C 4.535156 -0.0703125 3.765625 0 2.734375 0 L 0.859375 0 Z M 0.859375 -6.875 "/>
</symbol>
<symbol overflow="visible" id="glyph0-3">
<path style="stroke:none;" d="M 0.859375 -6.875 L 2.640625 -6.875 L 2.640625 -2.75 C 2.640625 -2.1875 2.726562 -1.78125 2.90625 -1.53125 C 3.09375 -1.289062 3.398438 -1.171875 3.828125 -1.171875 C 4.242188 -1.171875 4.546875 -1.289062 4.734375 -1.53125 C 4.921875 -1.78125 5.015625 -2.1875 5.015625 -2.75 L 5.015625 -6.875 L 6.78125 -6.875 L 6.78125 -2.75 C 6.78125 -1.78125 6.535156 -1.054688 6.046875 -0.578125 C 5.566406 -0.0976562 4.828125 0.140625 3.828125 0.140625 C 2.828125 0.140625 2.082031 -0.0976562 1.59375 -0.578125 C 1.101562 -1.054688 0.859375 -1.78125 0.859375 -2.75 Z M 0.859375 -6.875 "/>
</symbol>
<symbol overflow="visible" id="glyph0-4">
<path style="stroke:none;" d="M 6.3125 -0.375 C 5.988281 -0.207031 5.648438 -0.0820312 5.296875 0 C 4.941406 0.09375 4.570312 0.140625 4.1875 0.140625 C 3.039062 0.140625 2.132812 -0.175781 1.46875 -0.8125 C 0.800781 -1.457031 0.46875 -2.328125 0.46875 -3.421875 C 0.46875 -4.523438 0.800781 -5.394531 1.46875 -6.03125 C 2.132812 -6.675781 3.039062 -7 4.1875 -7 C 4.570312 -7 4.941406 -6.953125 5.296875 -6.859375 C 5.648438 -6.773438 5.988281 -6.648438 6.3125 -6.484375 L 6.3125 -5.0625 C 5.976562 -5.28125 5.648438 -5.441406 5.328125 -5.546875 C 5.015625 -5.648438 4.679688 -5.703125 4.328125 -5.703125 C 3.703125 -5.703125 3.207031 -5.5 2.84375 -5.09375 C 2.476562 -4.695312 2.296875 -4.140625 2.296875 -3.421875 C 2.296875 -2.710938 2.476562 -2.15625 2.84375 -1.75 C 3.207031 -1.351562 3.703125 -1.15625 4.328125 -1.15625 C 4.679688 -1.15625 5.015625 -1.207031 5.328125 -1.3125 C 5.648438 -1.414062 5.976562 -1.578125 6.3125 -1.796875 Z M 6.3125 -0.375 "/>
</symbol>
<symbol overflow="visible" id="glyph0-5">
<path style="stroke:none;" d="M 5.03125 -1.25 L 2.265625 -1.25 L 1.828125 0 L 0.046875 0 L 2.59375 -6.875 L 4.703125 -6.875 L 7.25 0 L 5.46875 0 Z M 2.703125 -2.53125 L 4.59375 -2.53125 L 3.640625 -5.265625 Z M 2.703125 -2.53125 "/>
</symbol>
<symbol overflow="visible" id="glyph0-6">
<path style="stroke:none;" d="M 0.046875 -6.875 L 6.375 -6.875 L 6.375 -5.53125 L 4.09375 -5.53125 L 4.09375 0 L 2.328125 0 L 2.328125 -5.53125 L 0.046875 -5.53125 Z M 0.046875 -6.875 "/>
</symbol>
<symbol overflow="visible" id="glyph0-7">
<path style="stroke:none;" d="M 0.859375 -6.875 L 2.640625 -6.875 L 2.640625 0 L 0.859375 0 Z M 0.859375 -6.875 "/>
</symbol>
<symbol overflow="visible" id="glyph0-8">
<path style="stroke:none;" d="M 4 -5.703125 C 3.457031 -5.703125 3.035156 -5.503906 2.734375 -5.109375 C 2.441406 -4.710938 2.296875 -4.148438 2.296875 -3.421875 C 2.296875 -2.703125 2.441406 -2.144531 2.734375 -1.75 C 3.035156 -1.351562 3.457031 -1.15625 4 -1.15625 C 4.539062 -1.15625 4.957031 -1.351562 5.25 -1.75 C 5.550781 -2.144531 5.703125 -2.703125 5.703125 -3.421875 C 5.703125 -4.148438 5.550781 -4.710938 5.25 -5.109375 C 4.957031 -5.503906 4.539062 -5.703125 4 -5.703125 Z M 4 -7 C 5.101562 -7 5.96875 -6.679688 6.59375 -6.046875 C 7.21875 -5.410156 7.53125 -4.535156 7.53125 -3.421875 C 7.53125 -2.316406 7.21875 -1.445312 6.59375 -0.8125 C 5.96875 -0.175781 5.101562 0.140625 4 0.140625 C 2.894531 0.140625 2.03125 -0.175781 1.40625 -0.8125 C 0.78125 -1.445312 0.46875 -2.316406 0.46875 -3.421875 C 0.46875 -4.535156 0.78125 -5.410156 1.40625 -6.046875 C 2.03125 -6.679688 2.894531 -7 4 -7 Z M 4 -7 "/>
</symbol>
<symbol overflow="visible" id="glyph0-9">
<path style="stroke:none;" d="M 0.859375 -6.875 L 2.84375 -6.875 L 5.34375 -2.15625 L 5.34375 -6.875 L 7.015625 -6.875 L 7.015625 0 L 5.046875 0 L 2.546875 -4.71875 L 2.546875 0 L 0.859375 0 Z M 0.859375 -6.875 "/>
</symbol>
<symbol overflow="visible" id="glyph1-0">
<path style="stroke:none;" d="M 0.359375 1.28125 L 0.359375 -5.109375 L 3.984375 -5.109375 L 3.984375 1.28125 Z M 0.765625 0.875 L 3.578125 0.875 L 3.578125 -4.703125 L 0.765625 -4.703125 Z M 0.765625 0.875 "/>
</symbol>
<symbol overflow="visible" id="glyph1-1">
<path style="stroke:none;" d="M 4.859375 -0.296875 C 4.609375 -0.160156 4.347656 -0.0625 4.078125 0 C 3.804688 0.0703125 3.519531 0.109375 3.21875 0.109375 C 2.34375 0.109375 1.644531 -0.132812 1.125 -0.625 C 0.613281 -1.125 0.359375 -1.796875 0.359375 -2.640625 C 0.359375 -3.484375 0.613281 -4.148438 1.125 -4.640625 C 1.644531 -5.128906 2.34375 -5.375 3.21875 -5.375 C 3.519531 -5.375 3.804688 -5.34375 4.078125 -5.28125 C 4.347656 -5.21875 4.609375 -5.117188 4.859375 -4.984375 L 4.859375 -3.890625 C 4.609375 -4.066406 4.359375 -4.191406 4.109375 -4.265625 C 3.859375 -4.347656 3.597656 -4.390625 3.328125 -4.390625 C 2.847656 -4.390625 2.46875 -4.234375 2.1875 -3.921875 C 1.90625 -3.609375 1.765625 -3.179688 1.765625 -2.640625 C 1.765625 -2.085938 1.90625 -1.65625 2.1875 -1.34375 C 2.46875 -1.039062 2.847656 -0.890625 3.328125 -0.890625 C 3.597656 -0.890625 3.859375 -0.925781 4.109375 -1 C 4.359375 -1.082031 4.609375 -1.210938 4.859375 -1.390625 Z M 4.859375 -0.296875 "/>
</symbol>
<symbol overflow="visible" id="glyph1-2">
<path style="stroke:none;" d="M 0.671875 -5.28125 L 4.34375 -5.28125 L 4.34375 -4.25 L 2.03125 -4.25 L 2.03125 -3.265625 L 4.203125 -3.265625 L 4.203125 -2.234375 L 2.03125 -2.234375 L 2.03125 -1.03125 L 4.421875 -1.03125 L 4.421875 0 L 0.671875 0 Z M 0.671875 -5.28125 "/>
</symbol>
<symbol overflow="visible" id="glyph1-3">
<path style="stroke:none;" d="M 0.671875 -5.28125 L 2.1875 -5.28125 L 4.109375 -1.65625 L 4.109375 -5.28125 L 5.40625 -5.28125 L 5.40625 0 L 3.875 0 L 1.953125 -3.625 L 1.953125 0 L 0.671875 0 Z M 0.671875 -5.28125 "/>
</symbol>
<symbol overflow="visible" id="glyph1-4">
<path style="stroke:none;" d="M 0.03125 -5.28125 L 4.90625 -5.28125 L 4.90625 -4.25 L 3.15625 -4.25 L 3.15625 0 L 1.796875 0 L 1.796875 -4.25 L 0.03125 -4.25 Z M 0.03125 -5.28125 "/>
</symbol>
<symbol overflow="visible" id="glyph1-5">
<path style="stroke:none;" d="M 2.609375 -2.9375 C 2.890625 -2.9375 3.09375 -2.988281 3.21875 -3.09375 C 3.34375 -3.207031 3.40625 -3.382812 3.40625 -3.625 C 3.40625 -3.863281 3.34375 -4.035156 3.21875 -4.140625 C 3.09375 -4.242188 2.890625 -4.296875 2.609375 -4.296875 L 2.03125 -4.296875 L 2.03125 -2.9375 Z M 2.03125 -2 L 2.03125 0 L 0.671875 0 L 0.671875 -5.28125 L 2.75 -5.28125 C 3.445312 -5.28125 3.957031 -5.160156 4.28125 -4.921875 C 4.601562 -4.691406 4.765625 -4.328125 4.765625 -3.828125 C 4.765625 -3.472656 4.679688 -3.179688 4.515625 -2.953125 C 4.347656 -2.734375 4.09375 -2.570312 3.75 -2.46875 C 3.9375 -2.425781 4.101562 -2.328125 4.25 -2.171875 C 4.394531 -2.023438 4.546875 -1.800781 4.703125 -1.5 L 5.4375 0 L 3.984375 0 L 3.34375 -1.3125 C 3.207031 -1.570312 3.070312 -1.75 2.9375 -1.84375 C 2.8125 -1.945312 2.640625 -2 2.421875 -2 Z M 2.03125 -2 "/>
</symbol>
</g>
</defs>
<g id="surface1">

<path style=" stroke:none;fill-rule:nonzero;fill:rgb(43, 127, 255);fill-opacity:1;" d="M 51.273438 15.621094 L 25.972656 29.191406 L 51.273438 42.765625 L 76.578125 29.191406 L 51.273438 15.621094 "/>
<path style="fill:none;stroke-width:18.325409;stroke-linecap:round;stroke-linejoin:round;stroke:rgb(43, 127, 255);stroke-opacity:1;stroke-miterlimit:10;" d="M 820.375 249.9375 L 415.5625 467.0625 L 820.375 684.25 L 1225.25 467.0625 Z M 820.375 249.9375 " transform="matrix(0.0625,0,0,0.0625,0,0)"/>
<path style="fill:none;stroke-width:19.9995;stroke-linecap:round;stroke-linejoin:round;stroke:rgb(43, 127, 255);stroke-opacity:1;stroke-miterlimit:10;" d="M 1118.1875 579.375 L 1118.1875 679.125 L 820.75 838.6875 L 820.375 838.6875 L 522.9375 679.125 L 522.9375 579.375 " transform="matrix(0.0625,0,0,0.0625,0,0)"/>
<path style="fill:none;stroke-width:17.332899;stroke-linecap:round;stroke-linejoin:round;stroke:rgb(43, 127, 255);stroke-opacity:1;stroke-miterlimit:10;" d="M 459.875 838.6875 L 371.1875 838.6875 L 371.1875 583.3125 L 415.5625 516.0625 L 459.875 583.3125 Z M 1180.625 794 L 1180.625 524.4375 M 1135.9375 838.6875 L 1180.625 794 L 1225.25 838.6875 Z M 1135.9375 838.6875 " transform="matrix(0.0625,0,0,0.0625,0,0)"/>
<g style="fill:rgb(43, 127, 255);fill-opacity:1;">
  <use xlink:href="#glyph0-1" x="17.660156" y="71.280089"/>
  <use xlink:href="#glyph0-2" x="24.09292" y="71.280089"/>
  <use xlink:href="#glyph0-3" x="31.909795" y="71.280089"/>
  <use xlink:href="#glyph0-4" x="39.556505" y="71.280089"/>
  <use xlink:href="#glyph0-5" x="46.467539" y="71.280089"/>
  <use xlink:href="#glyph0-6" x="53.024164" y="71.280089"/>
  <use xlink:href="#glyph0-7" x="59.447732" y="71.280089"/>
  <use xlink:href="#glyph0-8" x="62.951548" y="71.280089"/>
  <use xlink:href="#glyph0-9" x="70.956899" y="71.280089"/>
</g>
<g style="fill:rgb(43, 127, 255);fill-opacity:1;">
  <use xlink:href="#glyph1-1" x="33.53125" y="80.096826"/>
  <use xlink:href="#glyph1-2" x="38.851956" y="80.096826"/>
  <use xlink:href="#glyph1-3" x="43.804499" y="80.096826"/>
  <use xlink:href="#glyph1-4" x="49.872111" y="80.096826"/>
  <use xlink:href="#glyph1-2" x="54.817574" y="80.096826"/>
  <use xlink:href="#glyph1-5" x="59.770117" y="80.096826"/>
</g>
</g>
</svg>
